<svg width="48" height="48" viewBox="0 0 48 48" fill="none" xmlns="http://www.w3.org/2000/svg">
<rect width="48" height="48" rx="10" fill="white"/>
<mask id="mask0_134_139" style="mask-type:alpha" maskUnits="userSpaceOnUse" x="4" y="9" width="35" height="39">
<path d="M10.5701 44.2555L10.5704 44.2556C10.6468 44.2935 10.6902 44.3676 10.6902 44.4422C10.6902 44.5168 10.6468 44.5909 10.5704 44.6288L4.82121 47.4773C4.74699 47.5113 4.66573 47.5062 4.60161 47.4682C4.5375 47.4273 4.5 47.356 4.5 47.2883L4.5 41.5912C4.5 41.5174 4.53782 41.4501 4.5994 41.4127C4.67094 41.3692 4.75128 41.3677 4.81628 41.3999L10.5701 44.2555ZM5.65782 42.2921L4.9361 41.935L4.9361 42.7403L4.9361 46.1345L4.9361 46.9397L5.65782 46.5826L9.08796 44.8855L9.99374 44.4374L9.08796 43.9892L5.65782 42.2921ZM19.6198 42.5678L19.6177 42.5699C19.1232 43.0658 18.841 43.7353 18.841 44.4374C18.841 45.1378 19.1221 45.8138 19.6198 46.307L19.6198 46.307L19.6219 46.3091C20.1221 46.7988 20.7956 47.0768 21.5 47.0768C22.2026 47.0768 22.8827 46.7999 23.3802 46.307L23.3823 46.3048C23.8768 45.809 24.159 45.1395 24.159 44.4374C24.159 43.737 23.8779 43.061 23.3802 42.5678L23.3781 42.5657C22.8779 42.0759 22.2044 41.798 21.5 41.798C20.7974 41.798 20.1173 42.0748 19.6198 42.5678ZM32.7459 46.5768L32.7459 47.0768L33.2459 47.0768L37.5639 47.0768L38.0639 47.0768L38.0639 46.5768L38.0639 42.298L38.0639 41.798L37.5639 41.798L33.2459 41.798L32.7459 41.798L32.7459 42.298L32.7459 46.5768ZM35.1869 35.173L35.1869 34.673L34.6869 34.673L22.218 34.673L21.718 34.673L21.718 35.173L21.718 39.2115C21.718 39.3253 21.626 39.423 21.5 39.423C21.374 39.423 21.282 39.3253 21.282 39.2115L21.282 35.173L21.282 34.673L20.782 34.673L8.31314 34.673L7.81314 34.673L7.81314 35.173L7.81314 39.2115C7.81314 39.3253 7.72109 39.423 7.59509 39.423C7.46909 39.423 7.37704 39.3253 7.37704 39.2115L7.37704 34.4615C7.37704 34.3477 7.46909 34.25 7.59509 34.25L20.782 34.25L21.282 34.25L21.282 33.75L21.282 29.7115C21.282 29.5977 21.374 29.5 21.5 29.5C21.626 29.5 21.718 29.5977 21.718 29.7115L21.718 33.75L21.718 34.25L22.218 34.25L35.4049 34.25C35.5309 34.25 35.623 34.3477 35.623 34.4615L35.623 39.2115C35.623 39.3253 35.5309 39.423 35.4049 39.423C35.2789 39.423 35.1869 39.3253 35.1869 39.2115L35.1869 35.173ZM23.6903 42.2733C24.2705 42.8482 24.5951 43.6244 24.5951 44.4374C24.5951 45.2503 24.2705 46.0265 23.6903 46.6014C23.1103 47.1762 22.3201 47.4999 21.5 47.4999C20.6799 47.4999 19.8897 47.1762 19.3097 46.6014C18.7297 46.0268 18.4049 45.2459 18.4049 44.4374C18.4049 43.6289 18.7297 42.848 19.3097 42.2733C19.8897 41.6985 20.6799 41.3749 21.5 41.3749C22.3201 41.3749 23.1103 41.6985 23.6903 42.2733ZM38.5 41.5864L38.5 47.2883C38.5 47.4021 38.408 47.4999 38.282 47.4999L32.5279 47.4999C32.4019 47.4999 32.3098 47.4021 32.3098 47.2883L32.3098 41.5864C32.3098 41.4726 32.4019 41.3749 32.5279 41.3749L38.282 41.3749C38.408 41.3749 38.5 41.4726 38.5 41.5864Z" fill="white" stroke="black"/>
<path d="M25.2199 12.0722L25.218 12.0711C24.2536 11.5265 23.1735 11.2588 21.9898 11.2588C20.8059 11.2588 19.7335 11.5267 18.777 12.0722L18.777 12.0722L18.7751 12.0732C17.8292 12.618 17.0737 13.3876 16.5095 14.3615C15.9343 15.3545 15.6623 16.5191 15.6623 17.8264C15.6623 19.1358 15.9351 20.2806 16.507 21.287C17.0707 22.2876 17.8268 23.0679 18.7751 23.614C19.7251 24.1611 20.8071 24.4285 21.9898 24.4285C23.1735 24.4285 24.2536 24.1607 25.218 23.6161C26.1875 23.0687 26.9388 22.2842 27.4783 21.2768C28.0197 20.2657 28.2831 19.1167 28.2831 17.8264C28.2831 16.5396 28.0211 15.3615 27.4755 14.3709C26.9346 13.3889 26.175 12.6169 25.2199 12.0722ZM21.9898 26.1701C20.3526 26.1701 18.9046 25.8098 17.6245 25.0913C16.3467 24.3693 15.3405 23.3838 14.6063 22.1215C13.8745 20.8634 13.5 19.4303 13.5 17.8179C13.5 16.2031 13.8756 14.7463 14.6041 13.5179C15.3391 12.2787 16.3383 11.3002 17.6092 10.5777C18.8696 9.86117 20.3249 9.5 21.9898 9.5C23.6522 9.5 25.0765 9.86006 26.3594 10.5639C27.634 11.2679 28.6303 12.2432 29.3558 13.4962C30.0781 14.7438 30.4454 16.1767 30.4454 17.8179C30.4454 19.459 30.0781 20.892 29.3558 22.1395C28.6303 23.3925 27.633 24.3695 26.3545 25.0917C25.0841 25.8093 23.6281 26.1701 21.9898 26.1701Z" fill="white" stroke="black"/>
</mask>
<g mask="url(#mask0_134_139)">
</g>
</svg>
